<?xml version="1.0" standalone="no"?>
<!DOCTYPE svg PUBLIC "-//W3C//DTD SVG 20010904//EN"
 "http://www.w3.org/TR/2001/REC-SVG-20010904/DTD/svg10.dtd">
<svg version="1.0" xmlns="http://www.w3.org/2000/svg"
 width="612.000000pt" height="610.000000pt" viewBox="0 0 612.000000 610.000000"
 preserveAspectRatio="xMidYMid meet">
<metadata>
Created by potrace 1.15, written by Peter Selinger 2001-2017
</metadata>
<g transform="translate(0.000000,610.000000) scale(0.100000,-0.100000)"
fill="#000000" stroke="none">
<path d="M0 3050 l0 -3050 3060 0 3060 0 0 3050 0 3050 -3060 0 -3060 0 0
-3050z m6100 -5 l0 -3035 -3040 0 -3040 0 0 3035 0 3035 3040 0 3040 0 0
-3035z"/>
<path d="M2395 4500 c-74 -29 -115 -68 -205 -195 -120 -169 -92 -159 -465
-165 -305 -5 -311 -5 -360 -30 -64 -31 -124 -92 -156 -155 l-24 -50 0 -915 c0
-914 0 -915 21 -961 30 -64 88 -125 148 -157 l51 -27 1610 0 1610 0 43 23 c66
35 119 88 149 150 l28 57 0 910 0 910 -33 67 c-35 72 -77 113 -152 150 -43 22
-59 23 -355 28 -263 4 -315 8 -340 22 -39 21 -59 44 -139 160 -77 111 -119
150 -194 178 -50 19 -78 20 -620 19 -535 0 -570 -1 -617 -19z m1212 -121 c34
-17 58 -42 115 -123 90 -128 130 -171 193 -204 l50 -27 310 -5 c344 -6 342 -5
403 -75 18 -19 35 -48 39 -63 5 -15 8 -421 8 -902 l0 -875 -23 -42 c-12 -24
-41 -55 -64 -70 l-42 -28 -1569 -3 c-1520 -2 -1570 -2 -1611 17 -52 23 -91 71
-106 131 -7 32 -10 298 -8 905 l3 860 27 47 c21 34 41 53 80 72 l52 26 283 0
c384 0 392 3 548 219 126 176 57 161 719 161 538 0 551 0 593 -21z"/>
<path d="M2919 3930 c-161 -20 -320 -85 -446 -184 -207 -162 -333 -422 -333
-690 0 -147 56 -332 139 -458 97 -147 201 -239 356 -314 244 -118 511 -119
755 -3 273 130 453 383 491 691 35 283 -89 584 -317 768 -177 142 -429 216
-645 190z m328 -153 c121 -41 200 -92 299 -192 78 -78 99 -106 137 -186 59
-124 77 -200 77 -334 0 -134 -18 -211 -75 -330 -94 -193 -273 -341 -482 -396
-107 -29 -269 -29 -376 0 -261 69 -469 278 -538 538 -28 107 -29 269 -1 374
81 304 349 533 652 558 106 9 223 -4 307 -32z"/>
<path d="M4200 3765 l0 -65 115 0 115 0 0 65 0 65 -115 0 -115 0 0 -65z"/>
</g>
</svg>
